<svg width="70" height="48" viewBox="0 0 70 48" fill="none" xmlns="http://www.w3.org/2000/svg">
<path d="M68.1664 7.51059C67.3638 4.57412 65.0132 2.25882 62.032 1.46824C56.5856 0 34.7999 0 34.7999 0C34.7999 0 13.0141 0 7.56768 1.41176C4.6438 2.20235 2.2359 4.57412 1.43327 7.51059C0 12.8753 0 24 0 24C0 24 0 35.1812 1.43327 40.4894C2.2359 43.4259 4.58647 45.7412 7.56768 46.5318C13.0714 48 34.7999 48 34.7999 48C34.7999 48 56.5856 48 62.032 46.5882C65.0132 45.7976 67.3638 43.4824 68.1664 40.5459C69.5997 35.1812 69.5997 24.0565 69.5997 24.0565C69.5997 24.0565 69.657 12.8753 68.1664 7.51059V7.51059Z" fill="#6842F8"/>
</svg>
