<svg width="29" height="28" viewBox="0 0 29 28" fill="none" xmlns="http://www.w3.org/2000/svg">
<path d="M19.75 8.6H9.85C10.2625 6.05 10.9187 3.9875 11.8187 2.4125C12.7187 0.837503 13.7125 0.0500031 14.8 0.0500031C15.8875 0.0500031 16.8812 0.837503 17.7812 2.4125C18.6812 3.9875 19.3375 6.05 19.75 8.6ZM9.56875 17.6C9.45625 16.4 9.4 15.2 9.4 14C9.4 12.8 9.45625 11.6 9.56875 10.4H20.0312C20.1437 11.6 20.2 12.8 20.2 14C20.2 15.2 20.1437 16.4 20.0312 17.6H9.56875ZM27.6812 8.6H21.6062C21.0437 5.15 20.1062 2.4875 18.7937 0.612503C20.7812 1.2125 22.5437 2.225 24.0812 3.65C25.6562 5.0375 26.8562 6.6875 27.6812 8.6ZM10.8062 0.612503C9.45625 2.4875 8.51875 5.15 7.99375 8.6H1.91875C2.74375 6.6875 3.925 5.0375 5.4625 3.65C7.0375 2.225 8.81875 1.2125 10.8062 0.612503ZM28.2437 10.4C28.5812 11.6 28.75 12.8 28.75 14C28.75 15.2 28.5812 16.4 28.2437 17.6H21.8312C21.9437 16.3625 22 15.1625 22 14C22 12.8375 21.9437 11.6375 21.8312 10.4H28.2437ZM7.6 14C7.6 15.125 7.65625 16.325 7.76875 17.6H1.35625C1.01875 16.3625 0.849998 15.1625 0.849998 14C0.849998 12.8375 1.01875 11.6375 1.35625 10.4H7.76875C7.65625 11.6375 7.6 12.8375 7.6 14ZM9.85 19.4H19.75C19.3375 21.95 18.6812 24.0125 17.7812 25.5875C16.8812 27.1625 15.8875 27.95 14.8 27.95C13.7125 27.95 12.7187 27.1625 11.8187 25.5875C10.9187 24.0125 10.2625 21.95 9.85 19.4ZM18.7937 27.3875C20.1437 25.5125 21.0812 22.85 21.6062 19.4H27.6812C26.8562 21.3125 25.6562 22.9813 24.0812 24.4063C22.5437 25.7938 20.7812 26.7875 18.7937 27.3875ZM1.91875 19.4H7.99375C8.55625 22.85 9.49375 25.5125 10.8062 27.3875C8.81875 26.7875 7.0375 25.7938 5.4625 24.4063C3.925 22.9813 2.74375 21.3125 1.91875 19.4Z" fill="white"/>
</svg>
